  0
SECTION
  2
HEADER
  9
$ACADVER
  1
AC1009
  9
$INSBASE
 10
0.0
 20
0.0
 30
0.0
  9
$EXTMIN
 10
0.0
 20
0.0
 30
0.0
  9
$EXTMAX
 10
0.0
 20
0.0
 30
0.0
  0
ENDSEC
  0
SECTION
  2
TABLES
  0
TABLE
  2
VPORT
 70
0
  0
ENDTAB
  0
TABLE
  2
LTYPE
 70
1
  0
LTYPE
  2
CONTINUOUS
 70
0
  3
Solid line
 72
65
 73
0
 40
0.0
  0
ENDTAB
  0
TABLE
  2
LAYER
 70
1
  0
LAYER
  2
0
 70
64
 62
7
  6
continuous
  0
ENDTAB
  0
TABLE
  2
STYLE
 70
1
  0
STYLE
  2
STANDARD
 70
0
 40
0
 41
1.0
 50
0.0
 71
0
 42
1
 3
ARIAL.TTF
 4

  0
ENDTAB
  0
TABLE
  2
VIEW
 70
0
  0
ENDTAB
  0
ENDSEC
  0
SECTION
  2
BLOCKS
  0
ENDSEC
  0
SECTION
  2
ENTITIES
  0
POLYLINE
  8
0
 62
7
 70
1
 66
1
 10
0.0
 20
0.0
 30
0.0
  0
VERTEX
  8
0
 10
-118.27499999999989
 20
43.41870022302146
 30
0.0
  0
VERTEX
  8
0
 10
-118.27499999999992
 20
-29.131199337566702
 30
0.0
  0
VERTEX
  8
0
 10
-117.67211451212313
 20
-31.381199662088548
 30
0.0
  0
VERTEX
  8
0
 10
-116.0250001021387
 20
-33.028314258060064
 30
0.0
  0
VERTEX
  8
0
 10
-113.77499984569286
 20
-33.63119999999994
 30
0.0
  0
VERTEX
  8
0
 10
-95.77500573637606
 20
-33.63119999999995
 30
0.0
  0
VERTEX
  8
0
 10
-31.139883270728262
 20
-24.61158264793137
 30
0.0
  0
VERTEX
  8
0
 10
-22.9930137592801
 20
-23.642237863906033
 30
0.0
  0
VERTEX
  8
0
 10
-14.788837933397716
 20
-23.591138305317674
 30
0.0
  0
VERTEX
  8
0
 10
-6.630525872496726
 20
-24.45892656511281
 30
0.0
  0
VERTEX
  8
0
 10
1.3793290952100434
 20
-26.23468993425408
 30
0.0
  0
VERTEX
  8
0
 10
9.140000535932773
 20
-28.896097632452797
 30
0.0
  0
VERTEX
  8
0
 10
16.55389557674303
 20
-32.40968162472193
 30
0.0
  0
VERTEX
  8
0
 10
23.527782166503354
 20
-36.731257492393574
 30
0.0
  0
VERTEX
  8
0
 10
25.71666998789411
 20
-37.52794525765308
 30
0.0
  0
VERTEX
  8
0
 10
28.010646926267896
 20
-37.12345657282121
 30
0.0
  0
VERTEX
  8
0
 10
29.79504709579261
 20
-35.626173257964076
 30
0.0
  0
VERTEX
  8
0
 10
38.62812350475955
 20
-23.01128552431036
 30
0.0
  0
VERTEX
  8
0
 10
39.33527405098092
 20
-21.404173108021766
 30
0.0
  0
VERTEX
  8
0
 10
39.37358143246318
 20
-19.648780058546436
 30
0.0
  0
VERTEX
  8
0
 10
25.481727219108745
 20
59.13584018243024
 30
0.0
  0
VERTEX
  8
0
 10
25.0631821393461
 20
60.39036961558855
 30
0.0
  0
VERTEX
  8
0
 10
24.298020423770563
 20
61.46905012040216
 30
0.0
  0
VERTEX
  8
0
 10
23.252330283121356
 20
62.27871437933549
 30
0.0
  0
VERTEX
  8
0
 10
16.222217552782745
 20
65.89407194817319
 30
0.0
  0
VERTEX
  8
0
 10
8.947828080201829
 20
68.98867259333286
 30
0.0
  0
VERTEX
  8
0
 10
1.4676747408500086
 20
71.54613253859115
 30
0.0
  0
VERTEX
  8
0
 10
-6.178640212031912
 20
73.5529117972913
 30
0.0
  0
VERTEX
  8
0
 10
-13.950634814052924
 20
74.99838585723471
 30
0.0
  0
VERTEX
  8
0
 10
-21.807161713754848
 20
75.87490193014582
 30
0.0
  0
VERTEX
  8
0
 10
-29.70662601946103
 20
76.17781946790828
 30
0.0
  0
VERTEX
  8
0
 10
-37.607205515541814
 20
75.90553473106688
 30
0.0
  0
VERTEX
  8
0
 10
-45.46707208220361
 20
75.0594892795219
 30
0.0
  0
VERTEX
  8
0
 10
-53.244613146536416
 20
73.64416234046365
 30
0.0
  0
VERTEX
  8
0
 10
-60.898651992389226
 20
71.6670470939536
 30
0.0
  0
VERTEX
  8
0
 10
-68.38866576268455
 20
69.13861100170364
 30
0.0
  0
VERTEX
  8
0
 10
-75.675
 20
66.07224038908515
 30
0.0
  0
VERTEX
  8
0
 10
-115.67024342549291
 20
47.500127735257045
 30
0.0
  0
VERTEX
  8
0
 10
-117.04488000795702
 20
46.51028288479581
 30
0.0
  0
VERTEX
  8
0
 10
-117.95617563290016
 20
45.08236172247881
 30
0.0
  0
SEQEND
  8
0
  0
ENDSEC
  0
EOF
