  0
SECTION
  2
HEADER
  9
$ACADVER
  1
AC1009
  9
$INSBASE
 10
0.0
 20
0.0
 30
0.0
  9
$EXTMIN
 10
0.0
 20
0.0
 30
0.0
  9
$EXTMAX
 10
0.0
 20
0.0
 30
0.0
  0
ENDSEC
  0
SECTION
  2
TABLES
  0
TABLE
  2
VPORT
 70
0
  0
ENDTAB
  0
TABLE
  2
LTYPE
 70
1
  0
LTYPE
  2
CONTINUOUS
 70
0
  3
Solid line
 72
65
 73
0
 40
0.0
  0
ENDTAB
  0
TABLE
  2
LAYER
 70
1
  0
LAYER
  2
0
 70
64
 62
7
  6
continuous
  0
ENDTAB
  0
TABLE
  2
STYLE
 70
1
  0
STYLE
  2
STANDARD
 70
0
 40
0
 41
1.0
 50
0.0
 71
0
 42
1
 3
ARIAL.TTF
 4

  0
ENDTAB
  0
TABLE
  2
VIEW
 70
0
  0
ENDTAB
  0
ENDSEC
  0
SECTION
  2
BLOCKS
  0
ENDSEC
  0
SECTION
  2
ENTITIES
  0
POLYLINE
  8
0
 62
7
 70
1
 66
1
 10
0.0
 20
0.0
 30
0.0
  0
VERTEX
  8
0
 10
-118.275
 20
43.41870025565252
 30
0.0
  0
VERTEX
  8
0
 10
-118.27500000000005
 20
-29.131200194107425
 30
0.0
  0
VERTEX
  8
0
 10
-117.67211348589679
 20
-31.38120143956496
 30
0.0
  0
VERTEX
  8
0
 10
-116.02499728897207
 20
-33.02831588224271
 30
0.0
  0
VERTEX
  8
0
 10
-113.7749954014156
 20
-33.63120000000004
 30
0.0
  0
VERTEX
  8
0
 10
-95.77500375991201
 20
-33.63120000000004
 30
0.0
  0
VERTEX
  8
0
 10
-95.1260632848706
 20
-33.58416318643637
 30
0.0
  0
VERTEX
  8
0
 10
-40.70095716244818
 20
-25.652717948457518
 30
0.0
  0
VERTEX
  8
0
 10
-37.83028892161614
 20
-25.26854912104763
 30
0.0
  0
VERTEX
  8
0
 10
-34.951420690192734
 20
-24.951627138572054
 30
0.0
  0
VERTEX
  8
0
 10
-32.06590049014628
 20
-24.70243843096475
 30
0.0
  0
VERTEX
  8
0
 10
-29.17528868358824
 20
-24.521647887344628
 30
0.0
  0
VERTEX
  8
0
 10
-26.28117738370339
 20
-24.410105873941614
 30
0.0
  0
VERTEX
  8
0
 10
-23.385211157722516
 20
-24.368857178771336
 30
0.0
  0
VERTEX
  8
0
 10
-20.48910962999166
 20
-24.399152028996802
 30
0.0
  0
VERTEX
  8
0
 10
-17.594692687884827
 20
-24.502459347808742
 30
0.0
  0
VERTEX
  8
0
 10
-14.703909123224921
 20
-24.680482433860387
 30
0.0
  0
VERTEX
  8
0
 10
-11.818869715178538
 20
-24.93517725299607
 30
0.0
  0
VERTEX
  8
0
 10
-8.941885987980612
 20
-25.268773521430703
 30
0.0
  0
VERTEX
  8
0
 10
-6.075516171974428
 20
-25.683798719176398
 30
0.0
  0
VERTEX
  8
0
 10
-3.222620276133199
 20
-26.183105082411892
 30
0.0
  0
VERTEX
  8
0
 10
-0.386426664141841
 20
-26.769899451995133
 30
0.0
  0
VERTEX
  8
0
 10
2.429386864712902
 20
-27.44777555246909
 30
0.0
  0
VERTEX
  8
0
 10
5.220593735941504
 20
-28.22074776340646
 30
0.0
  0
VERTEX
  8
0
 10
7.982296345538844
 20
-29.093284601034767
 30
0.0
  0
VERTEX
  8
0
 10
10.70877520957589
 20
-30.070338765774075
 30
0.0
  0
VERTEX
  8
0
 10
13.393302785395003
 20
-31.15736844869075
 30
0.0
  0
VERTEX
  8
0
 10
16.027914400238835
 20
-32.3603412147188
 30
0.0
  0
VERTEX
  8
0
 10
18.60312863921102
 20
-33.68570662103894
 30
0.0
  0
VERTEX
  8
0
 10
21.107611259691286
 20
-35.140316067106035
 30
0.0
  0
VERTEX
  8
0
 10
23.527782166503286
 20
-36.73125749239368
 30
0.0
  0
VERTEX
  8
0
 10
25.71667115838217
 20
-37.527945360057124
 30
0.0
  0
VERTEX
  8
0
 10
28.010649056017858
 20
-37.12345557970461
 30
0.0
  0
VERTEX
  8
0
 10
29.795049117584934
 20
-35.62617037055771
 30
0.0
  0
VERTEX
  8
0
 10
38.62812337144003
 20
-23.01128571470979
 30
0.0
  0
VERTEX
  8
0
 10
39.33527404173852
 20
-21.404173149711003
 30
0.0
  0
VERTEX
  8
0
 10
39.37358140693145
 20
-19.648779913748044
 30
0.0
  0
VERTEX
  8
0
 10
25.04760674940969
 20
61.59785970975912
 30
0.0
  0
VERTEX
  8
0
 10
24.695334985899024
 20
62.71611856480021
 30
0.0
  0
VERTEX
  8
0
 10
24.0661505065712
 20
63.705423954057295
 30
0.0
  0
VERTEX
  8
0
 10
23.202763232013567
 20
64.49862044697042
 30
0.0
  0
VERTEX
  8
0
 10
19.832541232219956
 20
66.6872682043977
 30
0.0
  0
VERTEX
  8
0
 10
16.318143919242768
 20
68.63600801784719
 30
0.0
  0
VERTEX
  8
0
 10
12.684637843886152
 20
70.35246044489888
 30
0.0
  0
VERTEX
  8
0
 10
8.953892359836205
 20
71.8458168883599
 30
0.0
  0
VERTEX
  8
0
 10
5.1447516943124505
 20
73.12606011690652
 30
0.0
  0
VERTEX
  8
0
 10
1.2733292917380394
 20
74.20340124896804
 30
0.0
  0
VERTEX
  8
0
 10
-2.6466507975075975
 20
75.08789626529357
 30
0.0
  0
VERTEX
  8
0
 10
-6.60351161961041
 20
75.7892005990139
 30
0.0
  0
VERTEX
  8
0
 10
-10.587305098082874
 20
76.31642432274735
 30
0.0
  0
VERTEX
  8
0
 10
-14.589529074234942
 20
76.67805753292109
 30
0.0
  0
VERTEX
  8
0
 10
-18.602882548561766
 20
76.88194285386326
 30
0.0
  0
VERTEX
  8
0
 10
-22.621057589897838
 20
76.93527831271123
 30
0.0
  0
VERTEX
  8
0
 10
-26.638564256698977
 20
76.8446388279661
 30
0.0
  0
VERTEX
  8
0
 10
-30.65058412292049
 20
76.61600828094731
 30
0.0
  0
VERTEX
  8
0
 10
-34.65284799022689
 20
76.25481682141437
 30
0.0
  0
VERTEX
  8
0
 10
-38.641533718200016
 20
75.76597993916309
 30
0.0
  0
VERTEX
  8
0
 10
-42.61318059680758
 20
75.15393712560169
 30
0.0
  0
VERTEX
  8
0
 10
-46.564617202987534
 20
74.42268882213273
 30
0.0
  0
VERTEX
  8
0
 10
-50.49290016737042
 20
73.57583093221011
 30
0.0
  0
VERTEX
  8
0
 10
-54.39526170298428
 20
72.6165865528436
 30
0.0
  0
VERTEX
  8
0
 10
-58.26906410836253
 20
71.54783482392325
 30
0.0
  0
VERTEX
  8
0
 10
-62.11175975491731
 20
70.37213694524293
 30
0.0
  0
VERTEX
  8
0
 10
-65.92085530880975
 20
69.09175950272795
 30
0.0
  0
VERTEX
  8
0
 10
-69.69387912812871
 20
67.70869529856532
 30
0.0
  0
VERTEX
  8
0
 10
-73.42835092409543
 20
66.22468190943655
 30
0.0
  0
VERTEX
  8
0
 10
-77.1217528865526
 20
64.64121821307289
 30
0.0
  0
VERTEX
  8
0
 10
-115.60331518908595
 20
47.530544302664936
 30
0.0
  0
VERTEX
  8
0
 10
-117.01101526719296
 20
46.54571218265845
 30
0.0
  0
VERTEX
  8
0
 10
-117.9470539248037
 20
45.10510625251752
 30
0.0
  0
SEQEND
  8
0
  0
ENDSEC
  0
EOF
