  0
SECTION
  2
HEADER
  9
$ACADVER
  1
AC1009
  9
$INSBASE
 10
0.0
 20
0.0
 30
0.0
  9
$EXTMIN
 10
0.0
 20
0.0
 30
0.0
  9
$EXTMAX
 10
0.0
 20
0.0
 30
0.0
  0
ENDSEC
  0
SECTION
  2
TABLES
  0
TABLE
  2
VPORT
 70
0
  0
ENDTAB
  0
TABLE
  2
LTYPE
 70
1
  0
LTYPE
  2
CONTINUOUS
 70
0
  3
Solid line
 72
65
 73
0
 40
0.0
  0
ENDTAB
  0
TABLE
  2
LAYER
 70
1
  0
LAYER
  2
0
 70
64
 62
7
  6
continuous
  0
ENDTAB
  0
TABLE
  2
STYLE
 70
1
  0
STYLE
  2
STANDARD
 70
0
 40
0
 41
1.0
 50
0.0
 71
0
 42
1
 3
ARIAL.TTF
 4

  0
ENDTAB
  0
TABLE
  2
VIEW
 70
0
  0
ENDTAB
  0
ENDSEC
  0
SECTION
  2
BLOCKS
  0
ENDSEC
  0
SECTION
  2
ENTITIES
  0
POLYLINE
  8
0
 62
7
 70
1
 66
1
 10
0.0
 20
0.0
 30
0.0
  0
VERTEX
  8
0
 10
-118.27499999999979
 20
43.41869992814717
 30
0.0
  0
VERTEX
  8
0
 10
-117.93993548289723
 20
45.12261092000193
 30
0.0
  0
VERTEX
  8
0
 10
-116.98463887261461
 20
46.57277962921034
 30
0.0
  0
VERTEX
  8
0
 10
-115.55137062399845
 20
47.553250447895635
 30
0.0
  0
VERTEX
  8
0
 10
-57.10137187053157
 20
72.66574991233433
 30
0.0
  0
VERTEX
  8
0
 10
-55.325
 20
73.03119999999993
 30
0.0
  0
VERTEX
  8
0
 10
10.286350488479217
 20
73.03119999999993
 30
0.0
  0
VERTEX
  8
0
 10
12.008415574013629
 20
72.68865421210181
 30
0.0
  0
VERTEX
  8
0
 10
13.468311749267162
 20
71.71318051533943
 30
0.0
  0
VERTEX
  8
0
 10
24.35773096334832
 20
60.82376130125827
 30
0.0
  0
VERTEX
  8
0
 10
25.60738587632011
 20
58.423194524309636
 30
0.0
  0
VERTEX
  8
0
 10
39.37357920417618
 20
-19.648767421303305
 30
0.0
  0
VERTEX
  8
0
 10
39.33527538220758
 20
-21.40416710327299
 30
0.0
  0
VERTEX
  8
0
 10
38.628123200127526
 20
-23.011285959367992
 30
0.0
  0
VERTEX
  8
0
 10
29.795049422880446
 20
-35.62616993455196
 30
0.0
  0
VERTEX
  8
0
 10
28.01064937761534
 20
-37.1234554297413
 30
0.0
  0
VERTEX
  8
0
 10
25.71667133512882
 20
-37.52794537552016
 30
0.0
  0
VERTEX
  8
0
 10
23.527782166503407
 20
-36.7312574923935
 30
0.0
  0
VERTEX
  8
0
 10
16.553895576743074
 20
-32.409681624721856
 30
0.0
  0
VERTEX
  8
0
 10
9.140000535932813
 20
-28.89609763245271
 30
0.0
  0
VERTEX
  8
0
 10
1.3793290952100739
 20
-26.234689934253986
 30
0.0
  0
VERTEX
  8
0
 10
-6.630525872496706
 20
-24.458926565112716
 30
0.0
  0
VERTEX
  8
0
 10
-14.788837933397708
 20
-23.59113830531758
 30
0.0
  0
VERTEX
  8
0
 10
-22.993013759280103
 20
-23.64223786390594
 30
0.0
  0
VERTEX
  8
0
 10
-31.139883270728276
 20
-24.611582647931282
 30
0.0
  0
VERTEX
  8
0
 10
-95.77499919091893
 20
-33.63119999999984
 30
0.0
  0
VERTEX
  8
0
 10
-113.77499981240376
 20
-33.63119999999984
 30
0.0
  0
VERTEX
  8
0
 10
-116.02499995709437
 20
-33.028314341801384
 30
0.0
  0
VERTEX
  8
0
 10
-117.6721143612849
 20
-31.381199923347936
 30
0.0
  0
VERTEX
  8
0
 10
-118.27499999999986
 20
-29.131199773436727
 30
0.0
  0
SEQEND
  8
0
  0
ENDSEC
  0
EOF
