  0
SECTION
  2
HEADER
  9
$ACADVER
  1
AC1009
  9
$INSBASE
 10
0.0
 20
0.0
 30
0.0
  9
$EXTMIN
 10
0.0
 20
0.0
 30
0.0
  9
$EXTMAX
 10
0.0
 20
0.0
 30
0.0
  0
ENDSEC
  0
SECTION
  2
TABLES
  0
TABLE
  2
VPORT
 70
0
  0
ENDTAB
  0
TABLE
  2
LTYPE
 70
1
  0
LTYPE
  2
CONTINUOUS
 70
0
  3
Solid line
 72
65
 73
0
 40
0.0
  0
ENDTAB
  0
TABLE
  2
LAYER
 70
1
  0
LAYER
  2
0
 70
64
 62
7
  6
continuous
  0
ENDTAB
  0
TABLE
  2
STYLE
 70
1
  0
STYLE
  2
STANDARD
 70
0
 40
0
 41
1.0
 50
0.0
 71
0
 42
1
 3
ARIAL.TTF
 4

  0
ENDTAB
  0
TABLE
  2
VIEW
 70
0
  0
ENDTAB
  0
ENDSEC
  0
SECTION
  2
BLOCKS
  0
ENDSEC
  0
SECTION
  2
ENTITIES
  0
POLYLINE
  8
0
 62
7
 70
0
 66
1
 10
0.0
 20
0.0
 30
0.0
  0
VERTEX
  8
0
 10
23.527782166503304
 20
-36.73125749239365
 30
0.0
  0
VERTEX
  8
0
 10
24.29651485985481
 20
-37.16397285930192
 30
0.0
  0
VERTEX
  8
0
 10
25.134895025254586
 20
-37.43840179518563
 30
0.0
  0
VERTEX
  8
0
 10
26.010704332205542
 20
-37.543998198742315
 30
0.0
  0
VERTEX
  8
0
 10
26.890286075947348
 20
-37.4767040781808
 30
0.0
  0
VERTEX
  8
0
 10
27.73983857976026
 20
-37.23910549684828
 30
0.0
  0
VERTEX
  8
0
 10
28.52671416843429
 20
-36.84033319272609
 30
0.0
  0
VERTEX
  8
0
 10
29.220673794312685
 20
-36.29571169091337
 30
0.0
  0
VERTEX
  8
0
 10
29.795049101557698
 20
-35.626170393446806
 30
0.0
  0
VERTEX
  8
0
 10
38.62812394864445
 20
-23.011284890379837
 30
0.0
  0
VERTEX
  8
0
 10
39.06084355724778
 20
-22.242550018983287
 30
0.0
  0
VERTEX
  8
0
 10
39.335275483568886
 20
-21.404166646064574
 30
0.0
  0
VERTEX
  8
0
 10
39.44087341625426
 20
-20.528353516005748
 30
0.0
  0
VERTEX
  8
0
 10
39.37357926814431
 20
-19.648767784083603
 30
0.0
  0
VERTEX
  8
0
 10
25.047604610657736
 20
61.59787183942976
 30
0.0
  0
VERTEX
  8
0
 10
24.810635184928007
 20
62.44580522294071
 30
0.0
  0
VERTEX
  8
0
 10
24.413099032381993
 20
63.23136905804383
 30
0.0
  0
VERTEX
  8
0
 10
23.870213356589908
 20
63.924492910340646
 30
0.0
  0
VERTEX
  8
0
 10
23.202759165243673
 20
64.4986448362778
 30
0.0
  0
VERTEX
  8
0
 10
19.832537372361582
 20
66.68729245933454
 30
0.0
  0
VERTEX
  8
0
 10
16.318140031363175
 20
68.63603171349675
 30
0.0
  0
VERTEX
  8
0
 10
12.68463379677198
 20
70.35248322586645
 30
0.0
  0
VERTEX
  8
0
 10
8.953888099206555
 20
71.84583847202404
 30
0.0
  0
VERTEX
  8
0
 10
5.144747219992963
 20
73.12608029036666
 30
0.0
  0
VERTEX
  8
0
 10
1.2733246394128614
 20
74.203419862509
 30
0.0
  0
VERTEX
  8
0
 10
-2.6466555702287264
 20
75.08791322435385
 30
0.0
  0
VERTEX
  8
0
 10
-6.603516443458506
 20
75.78921585591357
 30
0.0
  0
VERTEX
  8
0
 10
-10.587309899471078
 20
76.31643786888412
 30
0.0
  0
VERTEX
  8
0
 10
-14.589533780362654
 20
76.67806939177795
 30
0.0
  0
VERTEX
  8
0
 10
-18.602887090858474
 20
76.8819530749445
 30
0.0
  0
VERTEX
  8
0
 10
-22.621061906263098
 20
76.93528696639599
 30
0.0
  0
VERTEX
  8
0
 10
-26.638568292886312
 20
76.84464600120371
 30
0.0
  0
VERTEX
  8
0
 10
-30.65058783332368
 20
76.61601407369126
 30
0.0
  0
VERTEX
  8
0
 10
-34.65285133825699
 20
76.25482134368653
 30
0.0
  0
VERTEX
  8
0
 10
-38.641536676388654
 20
75.76598330864546
 30
0.0
  0
VERTEX
  8
0
 10
-42.61318314673281
 20
75.1539394656635
 30
0.0
  0
VERTEX
  8
0
 10
-46.5646193350898
 20
74.42269026021293
 30
0.0
  0
VERTEX
  8
0
 10
-50.49290188070566
 20
73.57583159848767
 30
0.0
  0
VERTEX
  8
0
 10
-54.3952630049461
 20
72.61658657913848
 30
0.0
  0
VERTEX
  8
0
 10
-58.26906501439493
 20
71.54783434278082
 30
0.0
  0
VERTEX
  8
0
 10
-62.11176028823163
 20
70.37213608916194
 30
0.0
  0
VERTEX
  8
0
 10
-65.92085550011414
 20
69.09175840349926
 30
0.0
  0
VERTEX
  8
0
 10
-69.69387901537456
 20
67.70869408669354
 30
0.0
  0
VERTEX
  8
0
 10
-73.42835055224172
 20
66.22468071362091
 30
0.0
  0
VERTEX
  8
0
 10
-77.12175230734735
 20
64.6412171597265
 30
0.0
  0
VERTEX
  8
0
 10
-115.60331453695575
 20
47.53054459263194
 30
0.0
  0
VERTEX
  8
0
 10
-116.35459899383581
 20
47.105930536731016
 30
0.0
  0
VERTEX
  8
0
 10
-117.0110146618721
 20
46.54571280907983
 30
0.0
  0
VERTEX
  8
0
 10
-117.5484208278943
 20
45.870494293087035
 30
0.0
  0
VERTEX
  8
0
 10
-117.94705353936192
 20
45.105107206074074
 30
0.0
  0
VERTEX
  8
0
 10
-118.19225245464014
 20
44.27769985563259
 30
0.0
  0
VERTEX
  8
0
 10
-118.27499999999993
 20
43.41870144157401
 30
0.0
  0
VERTEX
  8
0
 10
-118.27500000000005
 20
-29.131216602202777
 30
0.0
  0
VERTEX
  8
0
 10
-118.18853094587871
 20
-30.009120605738325
 30
0.0
  0
VERTEX
  8
0
 10
-117.9324532023749
 20
-30.85328677778266
 30
0.0
  0
VERTEX
  8
0
 10
-117.51660764541994
 20
-31.631274444459173
 30
0.0
  0
VERTEX
  8
0
 10
-116.9569749083812
 20
-32.31318612229787
 30
0.0
  0
VERTEX
  8
0
 10
-116.27506125828813
 20
-32.872816456137734
 30
0.0
  0
VERTEX
  8
0
 10
-115.49707212609442
 20
-33.28865927130286
 30
0.0
  0
VERTEX
  8
0
 10
-114.65290505158906
 20
-33.54473403979134
 30
0.0
  0
VERTEX
  8
0
 10
-113.77500074332971
 20
-33.631200000000014
 30
0.0
  0
VERTEX
  8
0
 10
-95.77499978456983
 20
-33.63120000000002
 30
0.0
  0
VERTEX
  8
0
 10
-95.12606323438766
 20
-33.5841631790794
 30
0.0
  0
VERTEX
  8
0
 10
-40.700957122265294
 20
-25.65271787042217
 30
0.0
  0
VERTEX
  8
0
 10
-37.83028886777593
 20
-25.26854904639712
 30
0.0
  0
VERTEX
  8
0
 10
-34.95142062083416
 20
-24.951627085283253
 30
0.0
  0
VERTEX
  8
0
 10
-32.06590040427064
 20
-24.70243841682284
 30
0.0
  0
VERTEX
  8
0
 10
-29.17528858106449
 20
-24.521647929720768
 30
0.0
  0
VERTEX
  8
0
 10
-26.281177265259664
 20
-24.410105989553465
 30
0.0
  0
VERTEX
  8
0
 10
-23.385211024921595
 20
-24.368857383419165
 30
0.0
  0
VERTEX
  8
0
 10
-20.48910948518629
 20
-24.399152337266663
 30
0.0
  0
VERTEX
  8
0
 10
-17.59469253414708
 20
-24.502459772733367
 30
0.0
  0
VERTEX
  8
0
 10
-14.703908964241428
 20
-24.680482986526876
 30
0.0
  0
VERTEX
  8
0
 10
-11.818869555100138
 20
-24.93517794208647
 30
0.0
  0
VERTEX
  8
0
 10
-8.94188583121074
 20
-25.26877435268064
 30
0.0
  0
VERTEX
  8
0
 10
-6.07551602287462
 20
-25.683799694732162
 30
0.0
  0
VERTEX
  8
0
 10
-3.222620138616249
 20
-26.18310620006479
 30
0.0
  0
VERTEX
  8
0
 10
-0.386426541112013
 20
-26.769900704266906
 30
0.0
  0
VERTEX
  8
0
 10
2.429386972128107
 20
-27.447776925519843
 30
0.0
  0
VERTEX
  8
0
 10
5.22059382944419
 20
-28.220749235733802
 30
0.0
  0
VERTEX
  8
0
 10
7.982296431102443
 20
-29.093286141933113
 30
0.0
  0
VERTEX
  8
0
 10
10.708775299417574
 20
-30.07034033352991
 30
0.0
  0
VERTEX
  8
0
 10
13.393302900670285
 20
-31.15736998850635
 30
0.0
  0
VERTEX
  8
0
 10
16.027914574712124
 20
-32.36034265639548
 30
0.0
  0
VERTEX
  8
0
 10
18.603128924229157
 20
-33.685707876524404
 30
0.0
  0
VERTEX
  8
0
 10
21.1076117308594
 20
-35.14031702814532
 30
0.0
  0
VERTEX
  8
0
 10
23.52778293250499
 20
-36.73125802875194
 30
0.0
  0
SEQEND
  8
0
  0
ENDSEC
  0
EOF
