  0
SECTION
  2
HEADER
  9
$ACADVER
  1
AC1009
  9
$INSBASE
 10
0.0
 20
0.0
 30
0.0
  9
$EXTMIN
 10
0.0
 20
0.0
 30
0.0
  9
$EXTMAX
 10
0.0
 20
0.0
 30
0.0
  0
ENDSEC
  0
SECTION
  2
TABLES
  0
TABLE
  2
VPORT
 70
0
  0
ENDTAB
  0
TABLE
  2
LTYPE
 70
1
  0
LTYPE
  2
CONTINUOUS
 70
0
  3
Solid line
 72
65
 73
0
 40
0.0
  0
ENDTAB
  0
TABLE
  2
LAYER
 70
1
  0
LAYER
  2
0
 70
64
 62
7
  6
continuous
  0
ENDTAB
  0
TABLE
  2
STYLE
 70
1
  0
STYLE
  2
STANDARD
 70
0
 40
0
 41
1.0
 50
0.0
 71
0
 42
1
 3
ARIAL.TTF
 4

  0
ENDTAB
  0
TABLE
  2
VIEW
 70
0
  0
ENDTAB
  0
ENDSEC
  0
SECTION
  2
BLOCKS
  0
ENDSEC
  0
SECTION
  2
ENTITIES
  0
POLYLINE
  8
0
 62
7
 70
1
 66
1
 10
0.0
 20
0.0
 30
0.0
  0
VERTEX
  8
0
 10
-118.27499999999995
 20
43.418700623374185
 30
0.0
  0
VERTEX
  8
0
 10
-118.27499999999992
 20
-29.13120048857494
 30
0.0
  0
VERTEX
  8
0
 10
-117.67211419882724
 20
-31.38120020473296
 30
0.0
  0
VERTEX
  8
0
 10
-116.02500001365227
 20
-33.02831430914774
 30
0.0
  0
VERTEX
  8
0
 10
-113.77500026793398
 20
-33.63119999999993
 30
0.0
  0
VERTEX
  8
0
 10
-95.77499930812378
 20
-33.631199999999914
 30
0.0
  0
VERTEX
  8
0
 10
-95.126063596657
 20
-33.5841632318733
 30
0.0
  0
VERTEX
  8
0
 10
-40.70095748894048
 20
-25.652717892983418
 30
0.0
  0
VERTEX
  8
0
 10
-37.83028926300301
 20
-25.26854907168046
 30
0.0
  0
VERTEX
  8
0
 10
-34.951421044557144
 20
-24.95162711363616
 30
0.0
  0
VERTEX
  8
0
 10
-32.06590085647034
 20
-24.70243844854119
 30
0.0
  0
VERTEX
  8
0
 10
-29.175289061757617
 20
-24.521647965008597
 30
0.0
  0
VERTEX
  8
0
 10
-26.281177774494505
 20
-24.410106028480023
 30
0.0
  0
VERTEX
  8
0
 10
-23.3852115627698
 20
-24.36885742587162
 30
0.0
  0
VERTEX
  8
0
 10
-20.48911005172999
 20
-24.39915238289792
 30
0.0
  0
VERTEX
  8
0
 10
-17.594693129460303
 20
-24.502459820902956
 30
0.0
  0
VERTEX
  8
0
 10
-14.703909588364269
 20
-24.68048303623333
 30
0.0
  0
VERTEX
  8
0
 10
-11.818870208003657
 20
-24.93517799188961
 30
0.0
  0
VERTEX
  8
0
 10
-8.941886512749791
 20
-25.26877440061084
 30
0.0
  0
VERTEX
  8
0
 10
-6.075516732724847
 20
-25.683799738184398
 30
0.0
  0
VERTEX
  8
0
 10
-3.222620876190158
 20
-26.183106235674156
 30
0.0
  0
VERTEX
  8
0
 10
-0.38642730544722736
 20
-26.769900727762106
 30
0.0
  0
VERTEX
  8
0
 10
2.4293861825176903
 20
-27.447776931550926
 30
0.0
  0
VERTEX
  8
0
 10
5.220593016766955
 20
-28.22074921767022
 30
0.0
  0
VERTEX
  8
0
 10
7.982295598554213
 20
-29.09328609162907
 30
0.0
  0
VERTEX
  8
0
 10
10.708774451536186
 20
-30.070340241054986
 30
0.0
  0
VERTEX
  8
0
 10
13.393302043809593
 20
-31.157369841843778
 30
0.0
  0
VERTEX
  8
0
 10
16.02791371767471
 20
-32.3603424411169
 30
0.0
  0
VERTEX
  8
0
 10
18.603128079106806
 20
-33.685707575463724
 30
0.0
  0
VERTEX
  8
0
 10
21.107610914139528
 20
-35.140316621116455
 30
0.0
  0
VERTEX
  8
0
 10
23.527782166503364
 20
-36.73125749239357
 30
0.0
  0
VERTEX
  8
0
 10
25.716671094685104
 20
-37.527945354484245
 30
0.0
  0
VERTEX
  8
0
 10
28.010648940118415
 20
-37.123455633749145
 30
0.0
  0
VERTEX
  8
0
 10
29.795049007560404
 20
-35.6261705276881
 30
0.0
  0
VERTEX
  8
0
 10
38.628123497428675
 20
-23.01128553477986
 30
0.0
  0
VERTEX
  8
0
 10
39.33527539783321
 20
-21.40416703279093
 30
0.0
  0
VERTEX
  8
0
 10
39.373579269110316
 20
-19.648767789562747
 30
0.0
  0
VERTEX
  8
0
 10
24.842028875951563
 20
62.76374976601705
 30
0.0
  0
VERTEX
  8
0
 10
24.453416608170194
 20
63.95818116856844
 30
0.0
  0
VERTEX
  8
0
 10
23.749810733203603
 20
64.9986736686775
 30
0.0
  0
VERTEX
  8
0
 10
22.78602947559658
 20
65.80416206558708
 30
0.0
  0
VERTEX
  8
0
 10
19.333671944610874
 20
67.79738161544051
 30
0.0
  0
VERTEX
  8
0
 10
15.763686186407922
 20
69.57133155326282
 30
0.0
  0
VERTEX
  8
0
 10
12.095955820322391
 20
71.13320563825361
 30
0.0
  0
VERTEX
  8
0
 10
8.347913321368946
 20
72.49109890420293
 30
0.0
  0
VERTEX
  8
0
 10
4.534716629640972
 20
73.65352209988795
 30
0.0
  0
VERTEX
  8
0
 10
0.6694815843135786
 20
74.6290500287781
 30
0.0
  0
VERTEX
  8
0
 10
-3.2364679035661132
 20
75.42607907078607
 30
0.0
  0
VERTEX
  8
0
 10
-7.173355233064021
 20
76.05266892907505
 30
0.0
  0
VERTEX
  8
0
 10
-11.132724741186703
 20
76.5164466709085
 30
0.0
  0
VERTEX
  8
0
 10
-15.107239276739557
 20
76.8245552594789
 30
0.0
  0
VERTEX
  8
0
 10
-19.090503141403325
 20
76.98363285103615
 30
0.0
  0
VERTEX
  8
0
 10
-23.076909406402812
 20
76.99981265463785
 30
0.0
  0
VERTEX
  8
0
 10
-27.06150940317543
 20
76.87873597896738
 30
0.0
  0
VERTEX
  8
0
 10
-31.039901708046088
 20
76.62557325616308
 30
0.0
  0
VERTEX
  8
0
 10
-35.008137880529056
 20
76.2450494394716
 30
0.0
  0
VERTEX
  8
0
 10
-38.96264237415428
 20
75.74147133672122
 30
0.0
  0
VERTEX
  8
0
 10
-42.9001442977028
 20
75.11875527162944
 30
0.0
  0
VERTEX
  8
0
 10
-46.81761899427244
 20
74.38045404759666
 30
0.0
  0
VERTEX
  8
0
 10
-50.71223768816169
 20
73.52978259228615
 30
0.0
  0
VERTEX
  8
0
 10
-54.581323706657884
 20
72.56964193740843
 30
0.0
  0
VERTEX
  8
0
 10
-58.422314007941594
 20
71.50264137456128
 30
0.0
  0
VERTEX
  8
0
 10
-62.232724936020084
 20
70.33111875213707
 30
0.0
  0
VERTEX
  8
0
 10
-66.01012128051013
 20
69.05715895987326
 30
0.0
  0
VERTEX
  8
0
 10
-69.75208784619778
 20
67.68261070064497
 30
0.0
  0
VERTEX
  8
0
 10
-73.45620283799462
 20
66.20910168363233
 30
0.0
  0
VERTEX
  8
0
 10
-77.12001244445895
 20
64.6380523962924
 30
0.0
  0
VERTEX
  8
0
 10
-115.60296559218075
 20
47.53069973173718
 30
0.0
  0
VERTEX
  8
0
 10
-117.01083793710728
 20
46.54589568380011
 30
0.0
  0
VERTEX
  8
0
 10
-117.9470060383207
 20
45.105224715566095
 30
0.0
  0
SEQEND
  8
0
  0
ENDSEC
  0
EOF
