  0
SECTION
  2
HEADER
  9
$ANGBASE
  50
0.0
  9
$ANGDIR
  70
1
  9
$MEASUREMENT
  70
1
  0
ENDSEC
  0
SECTION
  2
TABLES
  0
TABLE
  2
LTYPE
  70
4
  0
LTYPE
  5
40F
  2
CONTINUOUS
  70
0
  3
Solid line
  72
65
  73
0
  40
0.0
  0
LTYPE
  5
410
  2
DASHDOT
 70
0
  3
Dash Dot ____ _ ____ _
 72
65
 73
4
 40
2.0
 49
1.25
 49
-0.25
 49
0.25
 49
-0.25
  0
LTYPE
  5
411
  2
DASHED
 70
0
  3
Dashed __ __ __ __ __
 72
65
 73
2
 40
0.75
 49
0.5
 49
-0.25
  0
LTYPE
  5
43B
  2
DOTTED
 70
0
  3
Dotted .  .  .  .
 72
65
 73
2
 40
0.2
 49
0.0
 49
-0.2
  0
ENDTAB
  0
TABLE
  2
STYLE
  70
4
  0
STYLE
  2
KICAD
  70
0
  40
0
  41
1
  42
1
  50
0
  71
0
  3
isocp.shx
  0
STYLE
  2
KICADB
  70
0
  40
0
  41
1
  42
1
  50
0
  71
0
  3
isocp.shx
  0
STYLE
  2
KICADI
  70
0
  40
0
  41
1
  42
1
  50
15
  71
0
  3
isocp.shx
  0
STYLE
  2
KICADBI
  70
0
  40
0
  41
1
  42
1
  50
15
  71
0
  3
isocp.shx
  0
ENDTAB
  0
TABLE
  2
LAYER
  70
1
  0
LAYER
  2
BLACK
  70
0
  62
7
  6
CONTINUOUS
  0
ENDTAB
  0
ENDSEC
  0
SECTION
  2
ENTITIES
0
LINE
8
BLACK
6
CONTINUOUS
10
23.06
20
1.07
11
20.12
21
1.07
0
LINE
8
BLACK
6
CONTINUOUS
10
20.12
20
1.07
11
20.12
21
31.95
0
LINE
8
BLACK
6
CONTINUOUS
10
20.12
20
31.95
11
23.06
21
31.95
0
LINE
8
BLACK
6
CONTINUOUS
10
23.06
20
31.95
11
23.06
21
1.07
0
LINE
8
BLACK
6
CONTINUOUS
10
4.88
20
1.07
11
4.88
21
31.95
0
LINE
8
BLACK
6
CONTINUOUS
10
7.82
20
1.07
11
4.88
21
1.07
0
LINE
8
BLACK
6
CONTINUOUS
10
7.82
20
31.95
11
7.82
21
1.07
0
LINE
8
BLACK
6
CONTINUOUS
10
4.88
20
31.95
11
7.82
21
31.95
0
LINE
8
BLACK
6
CONTINUOUS
10
-30.0732
20
-19.1435
11
-16.2859
21
-16.7124
0
LINE
8
BLACK
6
CONTINUOUS
10
-16.2859
20
-16.7124
11
-18.7169
21
-2.9251
0
LINE
8
BLACK
6
CONTINUOUS
10
-18.7169
20
-2.9251
11
-32.5042
21
-5.35618
0
LINE
8
BLACK
6
CONTINUOUS
10
-32.5042
20
-5.35618
11
-30.0732
21
-19.1435
0
LINE
8
BLACK
6
CONTINUOUS
10
-8.02429
20
-17.3573
11
5.64385
21
-20.3875
0
LINE
8
BLACK
6
CONTINUOUS
10
5.64385
20
-20.3875
11
8.67401
21
-6.71936
0
LINE
8
BLACK
6
CONTINUOUS
10
8.67401
20
-6.71936
11
-4.99414
21
-3.6892
0
LINE
8
BLACK
6
CONTINUOUS
10
-4.99414
20
-3.6892
11
-8.02429
21
-17.3573
0
LINE
8
BLACK
6
CONTINUOUS
10
-111.775
20
28.7188
11
-97.775
21
28.7188
0
LINE
8
BLACK
6
CONTINUOUS
10
-97.775
20
28.7188
11
-97.775
21
42.7188
0
LINE
8
BLACK
6
CONTINUOUS
10
-97.775
20
42.7188
11
-111.775
21
42.7188
0
LINE
8
BLACK
6
CONTINUOUS
10
-111.775
20
42.7188
11
-111.775
21
28.7188
0
LINE
8
BLACK
6
CONTINUOUS
10
-92.725
20
31.1
11
-78.725
21
31.1
0
LINE
8
BLACK
6
CONTINUOUS
10
-78.725
20
31.1
11
-78.725
21
45.1
0
LINE
8
BLACK
6
CONTINUOUS
10
-78.725
20
45.1
11
-92.725
21
45.1
0
LINE
8
BLACK
6
CONTINUOUS
10
-92.725
20
45.1
11
-92.725
21
31.1
0
LINE
8
BLACK
6
CONTINUOUS
10
-73.675
20
45.3875
11
-59.675
21
45.3875
0
LINE
8
BLACK
6
CONTINUOUS
10
-59.675
20
45.3875
11
-59.675
21
59.3875
0
LINE
8
BLACK
6
CONTINUOUS
10
-59.675
20
59.3875
11
-73.675
21
59.3875
0
LINE
8
BLACK
6
CONTINUOUS
10
-73.675
20
59.3875
11
-73.675
21
45.3875
0
LINE
8
BLACK
6
CONTINUOUS
10
-54.625
20
52.5312
11
-40.625
21
52.5312
0
LINE
8
BLACK
6
CONTINUOUS
10
-40.625
20
52.5312
11
-40.625
21
66.5312
0
LINE
8
BLACK
6
CONTINUOUS
10
-40.625
20
66.5312
11
-54.625
21
66.5312
0
LINE
8
BLACK
6
CONTINUOUS
10
-54.625
20
66.5312
11
-54.625
21
52.5312
0
LINE
8
BLACK
6
CONTINUOUS
10
-35.575
20
45.3875
11
-21.575
21
45.3875
0
LINE
8
BLACK
6
CONTINUOUS
10
-21.575
20
45.3875
11
-21.575
21
59.3875
0
LINE
8
BLACK
6
CONTINUOUS
10
-21.575
20
59.3875
11
-35.575
21
59.3875
0
LINE
8
BLACK
6
CONTINUOUS
10
-35.575
20
59.3875
11
-35.575
21
45.3875
0
LINE
8
BLACK
6
CONTINUOUS
10
-16.525
20
40.625
11
-2.525
21
40.625
0
LINE
8
BLACK
6
CONTINUOUS
10
-2.525
20
40.625
11
-2.525
21
54.625
0
LINE
8
BLACK
6
CONTINUOUS
10
-2.525
20
54.625
11
-16.525
21
54.625
0
LINE
8
BLACK
6
CONTINUOUS
10
-16.525
20
54.625
11
-16.525
21
40.625
0
LINE
8
BLACK
6
CONTINUOUS
10
-111.775
20
9.66875
11
-97.775
21
9.66875
0
LINE
8
BLACK
6
CONTINUOUS
10
-97.775
20
9.66875
11
-97.775
21
23.6687
0
LINE
8
BLACK
6
CONTINUOUS
10
-97.775
20
23.6687
11
-111.775
21
23.6687
0
LINE
8
BLACK
6
CONTINUOUS
10
-111.775
20
23.6687
11
-111.775
21
9.66875
0
LINE
8
BLACK
6
CONTINUOUS
10
-92.725
20
12.05
11
-78.725
21
12.05
0
LINE
8
BLACK
6
CONTINUOUS
10
-78.725
20
12.05
11
-78.725
21
26.05
0
LINE
8
BLACK
6
CONTINUOUS
10
-78.725
20
26.05
11
-92.725
21
26.05
0
LINE
8
BLACK
6
CONTINUOUS
10
-92.725
20
26.05
11
-92.725
21
12.05
0
LINE
8
BLACK
6
CONTINUOUS
10
-73.675
20
26.3375
11
-59.675
21
26.3375
0
LINE
8
BLACK
6
CONTINUOUS
10
-59.675
20
26.3375
11
-59.675
21
40.3375
0
LINE
8
BLACK
6
CONTINUOUS
10
-59.675
20
40.3375
11
-73.675
21
40.3375
0
LINE
8
BLACK
6
CONTINUOUS
10
-73.675
20
40.3375
11
-73.675
21
26.3375
0
LINE
8
BLACK
6
CONTINUOUS
10
-54.625
20
33.4812
11
-40.625
21
33.4812
0
LINE
8
BLACK
6
CONTINUOUS
10
-40.625
20
33.4812
11
-40.625
21
47.4812
0
LINE
8
BLACK
6
CONTINUOUS
10
-40.625
20
47.4812
11
-54.625
21
47.4812
0
LINE
8
BLACK
6
CONTINUOUS
10
-54.625
20
47.4812
11
-54.625
21
33.4812
0
LINE
8
BLACK
6
CONTINUOUS
10
-35.575
20
26.3375
11
-21.575
21
26.3375
0
LINE
8
BLACK
6
CONTINUOUS
10
-21.575
20
26.3375
11
-21.575
21
40.3375
0
LINE
8
BLACK
6
CONTINUOUS
10
-21.575
20
40.3375
11
-35.575
21
40.3375
0
LINE
8
BLACK
6
CONTINUOUS
10
-35.575
20
40.3375
11
-35.575
21
26.3375
0
LINE
8
BLACK
6
CONTINUOUS
10
-16.525
20
21.575
11
-2.525
21
21.575
0
LINE
8
BLACK
6
CONTINUOUS
10
-2.525
20
21.575
11
-2.525
21
35.575
0
LINE
8
BLACK
6
CONTINUOUS
10
-2.525
20
35.575
11
-16.525
21
35.575
0
LINE
8
BLACK
6
CONTINUOUS
10
-16.525
20
35.575
11
-16.525
21
21.575
0
LINE
8
BLACK
6
CONTINUOUS
10
-111.775
20
-9.38125
11
-97.775
21
-9.38125
0
LINE
8
BLACK
6
CONTINUOUS
10
-97.775
20
-9.38125
11
-97.775
21
4.61875
0
LINE
8
BLACK
6
CONTINUOUS
10
-97.775
20
4.61875
11
-111.775
21
4.61875
0
LINE
8
BLACK
6
CONTINUOUS
10
-111.775
20
4.61875
11
-111.775
21
-9.38125
0
LINE
8
BLACK
6
CONTINUOUS
10
-92.725
20
-7
11
-78.725
21
-7
0
LINE
8
BLACK
6
CONTINUOUS
10
-78.725
20
-7
11
-78.725
21
7
0
LINE
8
BLACK
6
CONTINUOUS
10
-78.725
20
7
11
-92.725
21
7
0
LINE
8
BLACK
6
CONTINUOUS
10
-92.725
20
7
11
-92.725
21
-7
0
LINE
8
BLACK
6
CONTINUOUS
10
-73.675
20
7.2875
11
-59.675
21
7.2875
0
LINE
8
BLACK
6
CONTINUOUS
10
-59.675
20
7.2875
11
-59.675
21
21.2875
0
LINE
8
BLACK
6
CONTINUOUS
10
-59.675
20
21.2875
11
-73.675
21
21.2875
0
LINE
8
BLACK
6
CONTINUOUS
10
-73.675
20
21.2875
11
-73.675
21
7.2875
0
LINE
8
BLACK
6
CONTINUOUS
10
-54.625
20
14.4312
11
-40.625
21
14.4312
0
LINE
8
BLACK
6
CONTINUOUS
10
-40.625
20
14.4312
11
-40.625
21
28.4312
0
LINE
8
BLACK
6
CONTINUOUS
10
-40.625
20
28.4312
11
-54.625
21
28.4312
0
LINE
8
BLACK
6
CONTINUOUS
10
-54.625
20
28.4312
11
-54.625
21
14.4312
0
LINE
8
BLACK
6
CONTINUOUS
10
-35.575
20
7.2875
11
-21.575
21
7.2875
0
LINE
8
BLACK
6
CONTINUOUS
10
-21.575
20
7.2875
11
-21.575
21
21.2875
0
LINE
8
BLACK
6
CONTINUOUS
10
-21.575
20
21.2875
11
-35.575
21
21.2875
0
LINE
8
BLACK
6
CONTINUOUS
10
-35.575
20
21.2875
11
-35.575
21
7.2875
0
LINE
8
BLACK
6
CONTINUOUS
10
-16.525
20
2.525
11
-2.525
21
2.525
0
LINE
8
BLACK
6
CONTINUOUS
10
-2.525
20
2.525
11
-2.525
21
16.525
0
LINE
8
BLACK
6
CONTINUOUS
10
-2.525
20
16.525
11
-16.525
21
16.525
0
LINE
8
BLACK
6
CONTINUOUS
10
-16.525
20
16.525
11
-16.525
21
2.525
0
LINE
8
BLACK
6
CONTINUOUS
10
-111.775
20
-28.4313
11
-97.775
21
-28.4313
0
LINE
8
BLACK
6
CONTINUOUS
10
-97.775
20
-28.4313
11
-97.775
21
-14.4313
0
LINE
8
BLACK
6
CONTINUOUS
10
-97.775
20
-14.4313
11
-111.775
21
-14.4313
0
LINE
8
BLACK
6
CONTINUOUS
10
-111.775
20
-14.4313
11
-111.775
21
-28.4313
0
LINE
8
BLACK
6
CONTINUOUS
10
32.9021
20
-19.8564
11
24.8721
21
-31.3245
0
LINE
8
BLACK
6
CONTINUOUS
10
21.434
20
-11.8263
11
32.9021
21
-19.8564
0
LINE
8
BLACK
6
CONTINUOUS
10
13.4039
20
-23.2945
11
21.434
21
-11.8263
0
LINE
8
BLACK
6
CONTINUOUS
10
24.8721
20
-31.3245
11
13.4039
21
-23.2945
0
LINE
8
BLACK
6
CONTINUOUS
10
3.82
20
68.605
11
-13.98
21
68.605
0
LINE
8
BLACK
6
CONTINUOUS
10
3.82
20
62.205
11
3.82
21
68.605
0
LINE
8
BLACK
6
CONTINUOUS
10
-2.33
20
62.205
11
3.82
21
62.205
0
LINE
8
BLACK
6
CONTINUOUS
10
-2.33
20
61.205
11
-2.33
21
62.205
0
LINE
8
BLACK
6
CONTINUOUS
10
-7.83
20
61.205
11
-2.33
21
61.205
0
LINE
8
BLACK
6
CONTINUOUS
10
-7.83
20
62.205
11
-7.83
21
61.205
0
LINE
8
BLACK
6
CONTINUOUS
10
-13.98
20
62.205
11
-7.83
21
62.205
0
LINE
8
BLACK
6
CONTINUOUS
10
-13.98
20
68.605
11
-13.98
21
62.205
0
LINE
8
BLACK
6
CONTINUOUS
10
22.87
20
37.44
11
5.07
21
37.44
0
LINE
8
BLACK
6
CONTINUOUS
10
22.87
20
43.84
11
22.87
21
37.44
0
LINE
8
BLACK
6
CONTINUOUS
10
16.72
20
43.84
11
22.87
21
43.84
0
LINE
8
BLACK
6
CONTINUOUS
10
16.72
20
44.84
11
16.72
21
43.84
0
LINE
8
BLACK
6
CONTINUOUS
10
11.22
20
44.84
11
16.72
21
44.84
0
LINE
8
BLACK
6
CONTINUOUS
10
11.22
20
43.84
11
11.22
21
44.84
0
LINE
8
BLACK
6
CONTINUOUS
10
5.07
20
43.84
11
11.22
21
43.84
0
LINE
8
BLACK
6
CONTINUOUS
10
5.07
20
37.44
11
5.07
21
43.84
  0
ENDSEC
  0
EOF
