  0
SECTION
  2
HEADER
  9
$ANGBASE
  50
0.0
  9
$ANGDIR
  70
1
  9
$MEASUREMENT
  70
1
  0
ENDSEC
  0
SECTION
  2
TABLES
  0
TABLE
  2
LTYPE
  70
4
  0
LTYPE
  5
40F
  2
CONTINUOUS
  70
0
  3
Solid line
  72
65
  73
0
  40
0.0
  0
LTYPE
  5
410
  2
DASHDOT
 70
0
  3
Dash Dot ____ _ ____ _
 72
65
 73
4
 40
2.0
 49
1.25
 49
-0.25
 49
0.25
 49
-0.25
  0
LTYPE
  5
411
  2
DASHED
 70
0
  3
Dashed __ __ __ __ __
 72
65
 73
2
 40
0.75
 49
0.5
 49
-0.25
  0
LTYPE
  5
43B
  2
DOTTED
 70
0
  3
Dotted .  .  .  .
 72
65
 73
2
 40
0.2
 49
0.0
 49
-0.2
  0
ENDTAB
  0
TABLE
  2
STYLE
  70
4
  0
STYLE
  2
KICAD
  70
0
  40
0
  41
1
  42
1
  50
0
  71
0
  3
isocp.shx
  0
STYLE
  2
KICADB
  70
0
  40
0
  41
1
  42
1
  50
0
  71
0
  3
isocp.shx
  0
STYLE
  2
KICADI
  70
0
  40
0
  41
1
  42
1
  50
15
  71
0
  3
isocp.shx
  0
STYLE
  2
KICADBI
  70
0
  40
0
  41
1
  42
1
  50
15
  71
0
  3
isocp.shx
  0
ENDTAB
  0
TABLE
  2
LAYER
  70
1
  0
LAYER
  2
BLACK
  70
0
  62
7
  6
CONTINUOUS
  0
ENDTAB
  0
ENDSEC
  0
SECTION
  2
ENTITIES
0
LINE
8
BLACK
6
CONTINUOUS
10
23.56
20
0.57
11
19.62
21
0.57
0
LINE
8
BLACK
6
CONTINUOUS
10
23.56
20
7.62
11
23.56
21
0.57
0
LINE
8
BLACK
6
CONTINUOUS
10
19.62
20
7.62
11
19.62
21
0.57
0
LINE
8
BLACK
6
CONTINUOUS
10
19.62
20
32.45
11
23.56
21
32.45
0
LINE
8
BLACK
6
CONTINUOUS
10
19.62
20
25.4
11
19.62
21
32.45
0
LINE
8
BLACK
6
CONTINUOUS
10
23.56
20
25.4
11
23.56
21
32.45
0
LINE
8
BLACK
6
CONTINUOUS
10
8.32
20
0.57
11
4.38
21
0.57
0
LINE
8
BLACK
6
CONTINUOUS
10
8.32
20
7.62
11
8.32
21
0.57
0
LINE
8
BLACK
6
CONTINUOUS
10
4.38
20
7.62
11
4.38
21
0.57
0
LINE
8
BLACK
6
CONTINUOUS
10
8.32
20
25.4
11
8.32
21
32.45
0
LINE
8
BLACK
6
CONTINUOUS
10
4.38
20
32.45
11
8.32
21
32.45
0
LINE
8
BLACK
6
CONTINUOUS
10
4.38
20
25.4
11
4.38
21
32.45
0
LINE
8
BLACK
6
CONTINUOUS
10
-29.8971
20
-2.86562
11
-34.8211
21
-3.73386
0
LINE
8
BLACK
6
CONTINUOUS
10
-34.8211
20
-3.73386
11
-33.9529
21
-8.6579
0
LINE
8
BLACK
6
CONTINUOUS
10
-22.0186
20
-1.47643
11
-17.0946
21
-0.60819
0
LINE
8
BLACK
6
CONTINUOUS
10
-17.0946
20
-0.60819
11
-16.2264
21
-5.53223
0
LINE
8
BLACK
6
CONTINUOUS
10
-14.8372
20
-13.4107
11
-13.9689
21
-18.3347
0
LINE
8
BLACK
6
CONTINUOUS
10
-13.9689
20
-18.3347
11
-18.893
21
-19.203
0
LINE
8
BLACK
6
CONTINUOUS
10
-26.7714
20
-20.5922
11
-31.6955
21
-21.4604
0
LINE
8
BLACK
6
CONTINUOUS
10
-31.6955
20
-21.4604
11
-32.5637
21
-16.5364
0
LINE
8
BLACK
6
CONTINUOUS
10
9.50668
20
-23.2924
11
10.5889
21
-18.4109
0
LINE
8
BLACK
6
CONTINUOUS
10
12.3204
20
-10.6006
11
13.4026
21
-5.7191
0
LINE
8
BLACK
6
CONTINUOUS
10
-8.85696
20
-0.784276
11
-9.93916
21
-5.66576
0
LINE
8
BLACK
6
CONTINUOUS
10
-12.7529
20
-18.3576
11
-11.6707
21
-13.4761
0
LINE
8
BLACK
6
CONTINUOUS
10
-12.7529
20
-18.3576
11
-6.69984
21
-19.6995
0
LINE
8
BLACK
6
CONTINUOUS
10
9.50668
20
-23.2924
11
3.45364
21
-21.9505
0
LINE
8
BLACK
6
CONTINUOUS
10
13.4026
20
-5.7191
11
7.34955
21
-4.37717
0
LINE
8
BLACK
6
CONTINUOUS
10
-8.85696
20
-0.784276
11
-2.80392
21
-2.1262
0
LINE
8
BLACK
6
CONTINUOUS
10
-108.775
20
44.7188
11
-113.775
21
44.7188
0
LINE
8
BLACK
6
CONTINUOUS
10
-113.775
20
44.7188
11
-113.775
21
39.7188
0
LINE
8
BLACK
6
CONTINUOUS
10
-100.775
20
44.7188
11
-95.775
21
44.7188
0
LINE
8
BLACK
6
CONTINUOUS
10
-95.775
20
44.7188
11
-95.775
21
39.7188
0
LINE
8
BLACK
6
CONTINUOUS
10
-95.775
20
31.7188
11
-95.775
21
26.7188
0
LINE
8
BLACK
6
CONTINUOUS
10
-95.775
20
26.7188
11
-100.775
21
26.7188
0
LINE
8
BLACK
6
CONTINUOUS
10
-108.775
20
26.7188
11
-113.775
21
26.7188
0
LINE
8
BLACK
6
CONTINUOUS
10
-113.775
20
26.7188
11
-113.775
21
31.7188
0
LINE
8
BLACK
6
CONTINUOUS
10
-89.725
20
47.1
11
-94.725
21
47.1
0
LINE
8
BLACK
6
CONTINUOUS
10
-94.725
20
47.1
11
-94.725
21
42.1
0
LINE
8
BLACK
6
CONTINUOUS
10
-81.725
20
47.1
11
-76.725
21
47.1
0
LINE
8
BLACK
6
CONTINUOUS
10
-76.725
20
47.1
11
-76.725
21
42.1
0
LINE
8
BLACK
6
CONTINUOUS
10
-76.725
20
34.1
11
-76.725
21
29.1
0
LINE
8
BLACK
6
CONTINUOUS
10
-76.725
20
29.1
11
-81.725
21
29.1
0
LINE
8
BLACK
6
CONTINUOUS
10
-89.725
20
29.1
11
-94.725
21
29.1
0
LINE
8
BLACK
6
CONTINUOUS
10
-94.725
20
29.1
11
-94.725
21
34.1
0
LINE
8
BLACK
6
CONTINUOUS
10
-70.675
20
61.3875
11
-75.675
21
61.3875
0
LINE
8
BLACK
6
CONTINUOUS
10
-75.675
20
61.3875
11
-75.675
21
56.3875
0
LINE
8
BLACK
6
CONTINUOUS
10
-62.675
20
61.3875
11
-57.675
21
61.3875
0
LINE
8
BLACK
6
CONTINUOUS
10
-57.675
20
61.3875
11
-57.675
21
56.3875
0
LINE
8
BLACK
6
CONTINUOUS
10
-57.675
20
48.3875
11
-57.675
21
43.3875
0
LINE
8
BLACK
6
CONTINUOUS
10
-57.675
20
43.3875
11
-62.675
21
43.3875
0
LINE
8
BLACK
6
CONTINUOUS
10
-70.675
20
43.3875
11
-75.675
21
43.3875
0
LINE
8
BLACK
6
CONTINUOUS
10
-75.675
20
43.3875
11
-75.675
21
48.3875
0
LINE
8
BLACK
6
CONTINUOUS
10
-51.625
20
68.5312
11
-56.625
21
68.5312
0
LINE
8
BLACK
6
CONTINUOUS
10
-56.625
20
68.5312
11
-56.625
21
63.5312
0
LINE
8
BLACK
6
CONTINUOUS
10
-43.625
20
68.5312
11
-38.625
21
68.5312
0
LINE
8
BLACK
6
CONTINUOUS
10
-38.625
20
68.5312
11
-38.625
21
63.5312
0
LINE
8
BLACK
6
CONTINUOUS
10
-38.625
20
55.5312
11
-38.625
21
50.5312
0
LINE
8
BLACK
6
CONTINUOUS
10
-38.625
20
50.5312
11
-43.625
21
50.5312
0
LINE
8
BLACK
6
CONTINUOUS
10
-51.625
20
50.5312
11
-56.625
21
50.5312
0
LINE
8
BLACK
6
CONTINUOUS
10
-56.625
20
50.5312
11
-56.625
21
55.5312
0
LINE
8
BLACK
6
CONTINUOUS
10
-32.575
20
61.3875
11
-37.575
21
61.3875
0
LINE
8
BLACK
6
CONTINUOUS
10
-37.575
20
61.3875
11
-37.575
21
56.3875
0
LINE
8
BLACK
6
CONTINUOUS
10
-24.575
20
61.3875
11
-19.575
21
61.3875
0
LINE
8
BLACK
6
CONTINUOUS
10
-19.575
20
61.3875
11
-19.575
21
56.3875
0
LINE
8
BLACK
6
CONTINUOUS
10
-19.575
20
48.3875
11
-19.575
21
43.3875
0
LINE
8
BLACK
6
CONTINUOUS
10
-19.575
20
43.3875
11
-24.575
21
43.3875
0
LINE
8
BLACK
6
CONTINUOUS
10
-32.575
20
43.3875
11
-37.575
21
43.3875
0
LINE
8
BLACK
6
CONTINUOUS
10
-37.575
20
43.3875
11
-37.575
21
48.3875
0
LINE
8
BLACK
6
CONTINUOUS
10
-13.525
20
56.625
11
-18.525
21
56.625
0
LINE
8
BLACK
6
CONTINUOUS
10
-18.525
20
56.625
11
-18.525
21
51.625
0
LINE
8
BLACK
6
CONTINUOUS
10
-5.525
20
56.625
11
-0.525
21
56.625
0
LINE
8
BLACK
6
CONTINUOUS
10
-0.525
20
56.625
11
-0.525
21
51.625
0
LINE
8
BLACK
6
CONTINUOUS
10
-0.525
20
43.625
11
-0.525
21
38.625
0
LINE
8
BLACK
6
CONTINUOUS
10
-0.525
20
38.625
11
-5.525
21
38.625
0
LINE
8
BLACK
6
CONTINUOUS
10
-13.525
20
38.625
11
-18.525
21
38.625
0
LINE
8
BLACK
6
CONTINUOUS
10
-18.525
20
38.625
11
-18.525
21
43.625
0
LINE
8
BLACK
6
CONTINUOUS
10
-108.775
20
25.6687
11
-113.775
21
25.6687
0
LINE
8
BLACK
6
CONTINUOUS
10
-113.775
20
25.6687
11
-113.775
21
20.6687
0
LINE
8
BLACK
6
CONTINUOUS
10
-100.775
20
25.6687
11
-95.775
21
25.6687
0
LINE
8
BLACK
6
CONTINUOUS
10
-95.775
20
25.6687
11
-95.775
21
20.6687
0
LINE
8
BLACK
6
CONTINUOUS
10
-95.775
20
12.6687
11
-95.775
21
7.66875
0
LINE
8
BLACK
6
CONTINUOUS
10
-95.775
20
7.66875
11
-100.775
21
7.66875
0
LINE
8
BLACK
6
CONTINUOUS
10
-108.775
20
7.66875
11
-113.775
21
7.66875
0
LINE
8
BLACK
6
CONTINUOUS
10
-113.775
20
7.66875
11
-113.775
21
12.6687
0
LINE
8
BLACK
6
CONTINUOUS
10
-89.725
20
28.05
11
-94.725
21
28.05
0
LINE
8
BLACK
6
CONTINUOUS
10
-94.725
20
28.05
11
-94.725
21
23.05
0
LINE
8
BLACK
6
CONTINUOUS
10
-81.725
20
28.05
11
-76.725
21
28.05
0
LINE
8
BLACK
6
CONTINUOUS
10
-76.725
20
28.05
11
-76.725
21
23.05
0
LINE
8
BLACK
6
CONTINUOUS
10
-76.725
20
15.05
11
-76.725
21
10.05
0
LINE
8
BLACK
6
CONTINUOUS
10
-76.725
20
10.05
11
-81.725
21
10.05
0
LINE
8
BLACK
6
CONTINUOUS
10
-89.725
20
10.05
11
-94.725
21
10.05
0
LINE
8
BLACK
6
CONTINUOUS
10
-94.725
20
10.05
11
-94.725
21
15.05
0
LINE
8
BLACK
6
CONTINUOUS
10
-70.675
20
42.3375
11
-75.675
21
42.3375
0
LINE
8
BLACK
6
CONTINUOUS
10
-75.675
20
42.3375
11
-75.675
21
37.3375
0
LINE
8
BLACK
6
CONTINUOUS
10
-62.675
20
42.3375
11
-57.675
21
42.3375
0
LINE
8
BLACK
6
CONTINUOUS
10
-57.675
20
42.3375
11
-57.675
21
37.3375
0
LINE
8
BLACK
6
CONTINUOUS
10
-57.675
20
29.3375
11
-57.675
21
24.3375
0
LINE
8
BLACK
6
CONTINUOUS
10
-57.675
20
24.3375
11
-62.675
21
24.3375
0
LINE
8
BLACK
6
CONTINUOUS
10
-70.675
20
24.3375
11
-75.675
21
24.3375
0
LINE
8
BLACK
6
CONTINUOUS
10
-75.675
20
24.3375
11
-75.675
21
29.3375
0
LINE
8
BLACK
6
CONTINUOUS
10
-51.625
20
49.4812
11
-56.625
21
49.4812
0
LINE
8
BLACK
6
CONTINUOUS
10
-56.625
20
49.4812
11
-56.625
21
44.4812
0
LINE
8
BLACK
6
CONTINUOUS
10
-43.625
20
49.4812
11
-38.625
21
49.4812
0
LINE
8
BLACK
6
CONTINUOUS
10
-38.625
20
49.4812
11
-38.625
21
44.4812
0
LINE
8
BLACK
6
CONTINUOUS
10
-38.625
20
36.4812
11
-38.625
21
31.4812
0
LINE
8
BLACK
6
CONTINUOUS
10
-38.625
20
31.4812
11
-43.625
21
31.4812
0
LINE
8
BLACK
6
CONTINUOUS
10
-51.625
20
31.4812
11
-56.625
21
31.4812
0
LINE
8
BLACK
6
CONTINUOUS
10
-56.625
20
31.4812
11
-56.625
21
36.4812
0
LINE
8
BLACK
6
CONTINUOUS
10
-32.575
20
42.3375
11
-37.575
21
42.3375
0
LINE
8
BLACK
6
CONTINUOUS
10
-37.575
20
42.3375
11
-37.575
21
37.3375
0
LINE
8
BLACK
6
CONTINUOUS
10
-24.575
20
42.3375
11
-19.575
21
42.3375
0
LINE
8
BLACK
6
CONTINUOUS
10
-19.575
20
42.3375
11
-19.575
21
37.3375
0
LINE
8
BLACK
6
CONTINUOUS
10
-19.575
20
29.3375
11
-19.575
21
24.3375
0
LINE
8
BLACK
6
CONTINUOUS
10
-19.575
20
24.3375
11
-24.575
21
24.3375
0
LINE
8
BLACK
6
CONTINUOUS
10
-32.575
20
24.3375
11
-37.575
21
24.3375
0
LINE
8
BLACK
6
CONTINUOUS
10
-37.575
20
24.3375
11
-37.575
21
29.3375
0
LINE
8
BLACK
6
CONTINUOUS
10
-13.525
20
37.575
11
-18.525
21
37.575
0
LINE
8
BLACK
6
CONTINUOUS
10
-18.525
20
37.575
11
-18.525
21
32.575
0
LINE
8
BLACK
6
CONTINUOUS
10
-5.525
20
37.575
11
-0.525
21
37.575
0
LINE
8
BLACK
6
CONTINUOUS
10
-0.525
20
37.575
11
-0.525
21
32.575
0
LINE
8
BLACK
6
CONTINUOUS
10
-0.525
20
24.575
11
-0.525
21
19.575
0
LINE
8
BLACK
6
CONTINUOUS
10
-0.525
20
19.575
11
-5.525
21
19.575
0
LINE
8
BLACK
6
CONTINUOUS
10
-13.525
20
19.575
11
-18.525
21
19.575
0
LINE
8
BLACK
6
CONTINUOUS
10
-18.525
20
19.575
11
-18.525
21
24.575
0
LINE
8
BLACK
6
CONTINUOUS
10
-108.775
20
6.61875
11
-113.775
21
6.61875
0
LINE
8
BLACK
6
CONTINUOUS
10
-113.775
20
6.61875
11
-113.775
21
1.61875
0
LINE
8
BLACK
6
CONTINUOUS
10
-100.775
20
6.61875
11
-95.775
21
6.61875
0
LINE
8
BLACK
6
CONTINUOUS
10
-95.775
20
6.61875
11
-95.775
21
1.61875
0
LINE
8
BLACK
6
CONTINUOUS
10
-95.775
20
-6.38125
11
-95.775
21
-11.3812
0
LINE
8
BLACK
6
CONTINUOUS
10
-95.775
20
-11.3812
11
-100.775
21
-11.3812
0
LINE
8
BLACK
6
CONTINUOUS
10
-108.775
20
-11.3812
11
-113.775
21
-11.3812
0
LINE
8
BLACK
6
CONTINUOUS
10
-113.775
20
-11.3812
11
-113.775
21
-6.38125
0
LINE
8
BLACK
6
CONTINUOUS
10
-89.725
20
9
11
-94.725
21
9
0
LINE
8
BLACK
6
CONTINUOUS
10
-94.725
20
9
11
-94.725
21
4
0
LINE
8
BLACK
6
CONTINUOUS
10
-81.725
20
9
11
-76.725
21
9
0
LINE
8
BLACK
6
CONTINUOUS
10
-76.725
20
9
11
-76.725
21
4
0
LINE
8
BLACK
6
CONTINUOUS
10
-76.725
20
-4
11
-76.725
21
-9
0
LINE
8
BLACK
6
CONTINUOUS
10
-76.725
20
-9
11
-81.725
21
-9
0
LINE
8
BLACK
6
CONTINUOUS
10
-89.725
20
-9
11
-94.725
21
-9
0
LINE
8
BLACK
6
CONTINUOUS
10
-94.725
20
-9
11
-94.725
21
-4
0
LINE
8
BLACK
6
CONTINUOUS
10
-70.675
20
23.2875
11
-75.675
21
23.2875
0
LINE
8
BLACK
6
CONTINUOUS
10
-75.675
20
23.2875
11
-75.675
21
18.2875
0
LINE
8
BLACK
6
CONTINUOUS
10
-62.675
20
23.2875
11
-57.675
21
23.2875
0
LINE
8
BLACK
6
CONTINUOUS
10
-57.675
20
23.2875
11
-57.675
21
18.2875
0
LINE
8
BLACK
6
CONTINUOUS
10
-57.675
20
10.2875
11
-57.675
21
5.2875
0
LINE
8
BLACK
6
CONTINUOUS
10
-57.675
20
5.2875
11
-62.675
21
5.2875
0
LINE
8
BLACK
6
CONTINUOUS
10
-70.675
20
5.2875
11
-75.675
21
5.2875
0
LINE
8
BLACK
6
CONTINUOUS
10
-75.675
20
5.2875
11
-75.675
21
10.2875
0
LINE
8
BLACK
6
CONTINUOUS
10
-51.625
20
30.4312
11
-56.625
21
30.4312
0
LINE
8
BLACK
6
CONTINUOUS
10
-56.625
20
30.4312
11
-56.625
21
25.4312
0
LINE
8
BLACK
6
CONTINUOUS
10
-43.625
20
30.4312
11
-38.625
21
30.4312
0
LINE
8
BLACK
6
CONTINUOUS
10
-38.625
20
30.4312
11
-38.625
21
25.4312
0
LINE
8
BLACK
6
CONTINUOUS
10
-38.625
20
17.4312
11
-38.625
21
12.4312
0
LINE
8
BLACK
6
CONTINUOUS
10
-38.625
20
12.4312
11
-43.625
21
12.4312
0
LINE
8
BLACK
6
CONTINUOUS
10
-51.625
20
12.4312
11
-56.625
21
12.4312
0
LINE
8
BLACK
6
CONTINUOUS
10
-56.625
20
12.4312
11
-56.625
21
17.4312
0
LINE
8
BLACK
6
CONTINUOUS
10
-32.575
20
23.2875
11
-37.575
21
23.2875
0
LINE
8
BLACK
6
CONTINUOUS
10
-37.575
20
23.2875
11
-37.575
21
18.2875
0
LINE
8
BLACK
6
CONTINUOUS
10
-24.575
20
23.2875
11
-19.575
21
23.2875
0
LINE
8
BLACK
6
CONTINUOUS
10
-19.575
20
23.2875
11
-19.575
21
18.2875
0
LINE
8
BLACK
6
CONTINUOUS
10
-19.575
20
10.2875
11
-19.575
21
5.2875
0
LINE
8
BLACK
6
CONTINUOUS
10
-19.575
20
5.2875
11
-24.575
21
5.2875
0
LINE
8
BLACK
6
CONTINUOUS
10
-32.575
20
5.2875
11
-37.575
21
5.2875
0
LINE
8
BLACK
6
CONTINUOUS
10
-37.575
20
5.2875
11
-37.575
21
10.2875
0
LINE
8
BLACK
6
CONTINUOUS
10
-13.525
20
18.525
11
-18.525
21
18.525
0
LINE
8
BLACK
6
CONTINUOUS
10
-18.525
20
18.525
11
-18.525
21
13.525
0
LINE
8
BLACK
6
CONTINUOUS
10
-5.525
20
18.525
11
-0.525
21
18.525
0
LINE
8
BLACK
6
CONTINUOUS
10
-0.525
20
18.525
11
-0.525
21
13.525
0
LINE
8
BLACK
6
CONTINUOUS
10
-0.525
20
5.525
11
-0.525
21
0.525
0
LINE
8
BLACK
6
CONTINUOUS
10
-0.525
20
0.525
11
-5.525
21
0.525
0
LINE
8
BLACK
6
CONTINUOUS
10
-13.525
20
0.525
11
-18.525
21
0.525
0
LINE
8
BLACK
6
CONTINUOUS
10
-18.525
20
0.525
11
-18.525
21
5.525
0
LINE
8
BLACK
6
CONTINUOUS
10
-108.775
20
-12.4313
11
-113.775
21
-12.4313
0
LINE
8
BLACK
6
CONTINUOUS
10
-113.775
20
-12.4313
11
-113.775
21
-17.4313
0
LINE
8
BLACK
6
CONTINUOUS
10
-100.775
20
-12.4313
11
-95.775
21
-12.4313
0
LINE
8
BLACK
6
CONTINUOUS
10
-95.775
20
-12.4313
11
-95.775
21
-17.4313
0
LINE
8
BLACK
6
CONTINUOUS
10
-95.775
20
-25.4313
11
-95.775
21
-30.4313
0
LINE
8
BLACK
6
CONTINUOUS
10
-95.775
20
-30.4313
11
-100.775
21
-30.4313
0
LINE
8
BLACK
6
CONTINUOUS
10
-108.775
20
-30.4313
11
-113.775
21
-30.4313
0
LINE
8
BLACK
6
CONTINUOUS
10
-113.775
20
-30.4313
11
-113.775
21
-25.4313
0
LINE
8
BLACK
6
CONTINUOUS
10
31.5918
20
-16.4974
11
35.6876
21
-19.3653
0
LINE
8
BLACK
6
CONTINUOUS
10
35.6876
20
-19.3653
11
32.8197
21
-23.461
0
LINE
8
BLACK
6
CONTINUOUS
10
25.0386
20
-11.9088
11
20.9429
21
-9.04089
0
LINE
8
BLACK
6
CONTINUOUS
10
20.9429
20
-9.04089
11
18.075
21
-13.1367
0
LINE
8
BLACK
6
CONTINUOUS
10
13.4864
20
-19.6899
11
10.6185
21
-23.7856
0
LINE
8
BLACK
6
CONTINUOUS
10
10.6185
20
-23.7856
11
14.7142
21
-26.6535
0
LINE
8
BLACK
6
CONTINUOUS
10
21.2675
20
-31.2421
11
25.3632
21
-34.11
0
LINE
8
BLACK
6
CONTINUOUS
10
25.3632
20
-34.11
11
28.2311
21
-30.0142
0
LINE
8
BLACK
6
CONTINUOUS
10
-14.8843
20
61.3157
11
-9.88433
21
61.3157
0
LINE
8
BLACK
6
CONTINUOUS
10
-14.8843
20
68.7157
11
-14.8843
21
61.3157
0
LINE
8
BLACK
6
CONTINUOUS
10
-14.8843
20
68.7157
11
-9.88433
21
68.7157
0
LINE
8
BLACK
6
CONTINUOUS
10
3.91567
20
68.7157
11
-1.08433
21
68.7157
0
LINE
8
BLACK
6
CONTINUOUS
10
3.91567
20
61.3157
11
3.91567
21
68.7157
0
LINE
8
BLACK
6
CONTINUOUS
10
3.91567
20
61.3157
11
-1.08433
21
61.3157
0
LINE
8
BLACK
6
CONTINUOUS
10
4.57
20
44.34
11
9.57
21
44.34
0
LINE
8
BLACK
6
CONTINUOUS
10
4.57
20
36.94
11
4.57
21
44.34
0
LINE
8
BLACK
6
CONTINUOUS
10
4.57
20
36.94
11
9.57
21
36.94
0
LINE
8
BLACK
6
CONTINUOUS
10
23.37
20
36.94
11
18.37
21
36.94
0
LINE
8
BLACK
6
CONTINUOUS
10
23.37
20
44.34
11
23.37
21
36.94
0
LINE
8
BLACK
6
CONTINUOUS
10
23.37
20
44.34
11
18.37
21
44.34
  0
ENDSEC
  0
EOF
