  0
SECTION
  2
HEADER
  9
$ANGBASE
  50
0.0
  9
$ANGDIR
  70
1
  9
$MEASUREMENT
  70
1
  0
ENDSEC
  0
SECTION
  2
TABLES
  0
TABLE
  2
LTYPE
  70
4
  0
LTYPE
  5
40F
  2
CONTINUOUS
  70
0
  3
Solid line
  72
65
  73
0
  40
0.0
  0
LTYPE
  5
410
  2
DASHDOT
 70
0
  3
Dash Dot ____ _ ____ _
 72
65
 73
4
 40
2.0
 49
1.25
 49
-0.25
 49
0.25
 49
-0.25
  0
LTYPE
  5
411
  2
DASHED
 70
0
  3
Dashed __ __ __ __ __
 72
65
 73
2
 40
0.75
 49
0.5
 49
-0.25
  0
LTYPE
  5
43B
  2
DOTTED
 70
0
  3
Dotted .  .  .  .
 72
65
 73
2
 40
0.2
 49
0.0
 49
-0.2
  0
ENDTAB
  0
TABLE
  2
STYLE
  70
4
  0
STYLE
  2
KICAD
  70
0
  40
0
  41
1
  42
1
  50
0
  71
0
  3
isocp.shx
  0
STYLE
  2
KICADB
  70
0
  40
0
  41
1
  42
1
  50
0
  71
0
  3
isocp.shx
  0
STYLE
  2
KICADI
  70
0
  40
0
  41
1
  42
1
  50
15
  71
0
  3
isocp.shx
  0
STYLE
  2
KICADBI
  70
0
  40
0
  41
1
  42
1
  50
15
  71
0
  3
isocp.shx
  0
ENDTAB
  0
TABLE
  2
LAYER
  70
1
  0
LAYER
  2
BLACK
  70
0
  62
7
  6
CONTINUOUS
  0
ENDTAB
  0
ENDSEC
  0
SECTION
  2
ENTITIES
0
LINE
8
BLACK
6
CONTINUOUS
10
20.12
20
31.95
11
23.06
21
31.95
0
LINE
8
BLACK
6
CONTINUOUS
10
23.06
20
31.95
11
23.06
21
1.07
0
LINE
8
BLACK
6
CONTINUOUS
10
20.12
20
1.07
11
20.12
21
31.95
0
LINE
8
BLACK
6
CONTINUOUS
10
23.06
20
1.07
11
20.12
21
1.07
0
LINE
8
BLACK
6
CONTINUOUS
10
7.82
20
1.07
11
4.88
21
1.07
0
LINE
8
BLACK
6
CONTINUOUS
10
4.88
20
1.07
11
4.88
21
31.95
0
LINE
8
BLACK
6
CONTINUOUS
10
7.82
20
31.95
11
7.82
21
1.07
0
LINE
8
BLACK
6
CONTINUOUS
10
4.88
20
31.95
11
7.82
21
31.95
0
LINE
8
BLACK
6
CONTINUOUS
10
-8.59531
20
69.1323
11
-8.59531
21
68.1323
0
LINE
8
BLACK
6
CONTINUOUS
10
-3.09531
20
69.1323
11
-8.59531
21
69.1323
0
LINE
8
BLACK
6
CONTINUOUS
10
-8.59531
20
68.1323
11
-14.7453
21
68.1323
0
LINE
8
BLACK
6
CONTINUOUS
10
3.05469
20
68.1323
11
-3.09531
21
68.1323
0
LINE
8
BLACK
6
CONTINUOUS
10
-3.09531
20
68.1323
11
-3.09531
21
69.1323
0
LINE
8
BLACK
6
CONTINUOUS
10
-8.59531
20
61.7323
11
-8.59531
21
60.7323
0
LINE
8
BLACK
6
CONTINUOUS
10
-14.7453
20
61.7323
11
-8.59531
21
61.7323
0
LINE
8
BLACK
6
CONTINUOUS
10
-14.7453
20
68.1323
11
-14.7453
21
61.7323
0
LINE
8
BLACK
6
CONTINUOUS
10
-3.09531
20
61.7323
11
3.05469
21
61.7323
0
LINE
8
BLACK
6
CONTINUOUS
10
3.05469
20
61.7323
11
3.05469
21
68.1323
0
LINE
8
BLACK
6
CONTINUOUS
10
-8.59531
20
60.7323
11
-3.09531
21
60.7323
0
LINE
8
BLACK
6
CONTINUOUS
10
-3.09531
20
60.7323
11
-3.09531
21
61.7323
0
LINE
8
BLACK
6
CONTINUOUS
10
-30.9652
20
-18.6915
11
-15.6022
21
-15.9826
0
LINE
8
BLACK
6
CONTINUOUS
10
-15.6022
20
-15.9826
11
-17.8249
21
-3.37707
0
LINE
8
BLACK
6
CONTINUOUS
10
-17.8249
20
-3.37707
11
-33.1879
21
-6.08598
0
LINE
8
BLACK
6
CONTINUOUS
10
-33.1879
20
-6.08598
11
-30.9652
21
-18.6915
0
LINE
8
BLACK
6
CONTINUOUS
10
-5.90504
20
-4.10183
11
-8.67546
21
-16.5984
0
LINE
8
BLACK
6
CONTINUOUS
10
9.32518
20
-7.47829
11
-5.90504
21
-4.10183
0
LINE
8
BLACK
6
CONTINUOUS
10
6.55475
20
-19.9749
11
9.32518
21
-7.47829
0
LINE
8
BLACK
6
CONTINUOUS
10
-8.67546
20
-16.5984
11
6.55475
21
-19.9749
0
LINE
8
BLACK
6
CONTINUOUS
10
-112.575
20
29.3187
11
-96.975
21
29.3187
0
LINE
8
BLACK
6
CONTINUOUS
10
-96.975
20
29.3187
11
-96.975
21
42.1187
0
LINE
8
BLACK
6
CONTINUOUS
10
-96.975
20
42.1187
11
-112.575
21
42.1187
0
LINE
8
BLACK
6
CONTINUOUS
10
-112.575
20
42.1187
11
-112.575
21
29.3187
0
LINE
8
BLACK
6
CONTINUOUS
10
-93.525
20
31.7
11
-77.925
21
31.7
0
LINE
8
BLACK
6
CONTINUOUS
10
-77.925
20
31.7
11
-77.925
21
44.5
0
LINE
8
BLACK
6
CONTINUOUS
10
-77.925
20
44.5
11
-93.525
21
44.5
0
LINE
8
BLACK
6
CONTINUOUS
10
-93.525
20
44.5
11
-93.525
21
31.7
0
LINE
8
BLACK
6
CONTINUOUS
10
-74.475
20
45.9875
11
-58.875
21
45.9875
0
LINE
8
BLACK
6
CONTINUOUS
10
-58.875
20
45.9875
11
-58.875
21
58.7875
0
LINE
8
BLACK
6
CONTINUOUS
10
-58.875
20
58.7875
11
-74.475
21
58.7875
0
LINE
8
BLACK
6
CONTINUOUS
10
-74.475
20
58.7875
11
-74.475
21
45.9875
0
LINE
8
BLACK
6
CONTINUOUS
10
-55.425
20
53.1312
11
-39.825
21
53.1312
0
LINE
8
BLACK
6
CONTINUOUS
10
-39.825
20
53.1312
11
-39.825
21
65.9312
0
LINE
8
BLACK
6
CONTINUOUS
10
-39.825
20
65.9312
11
-55.425
21
65.9312
0
LINE
8
BLACK
6
CONTINUOUS
10
-55.425
20
65.9312
11
-55.425
21
53.1312
0
LINE
8
BLACK
6
CONTINUOUS
10
-36.375
20
45.9875
11
-20.775
21
45.9875
0
LINE
8
BLACK
6
CONTINUOUS
10
-20.775
20
45.9875
11
-20.775
21
58.7875
0
LINE
8
BLACK
6
CONTINUOUS
10
-20.775
20
58.7875
11
-36.375
21
58.7875
0
LINE
8
BLACK
6
CONTINUOUS
10
-36.375
20
58.7875
11
-36.375
21
45.9875
0
LINE
8
BLACK
6
CONTINUOUS
10
-17.325
20
41.225
11
-1.725
21
41.225
0
LINE
8
BLACK
6
CONTINUOUS
10
-1.725
20
41.225
11
-1.725
21
54.025
0
LINE
8
BLACK
6
CONTINUOUS
10
-1.725
20
54.025
11
-17.325
21
54.025
0
LINE
8
BLACK
6
CONTINUOUS
10
-17.325
20
54.025
11
-17.325
21
41.225
0
LINE
8
BLACK
6
CONTINUOUS
10
-112.575
20
10.2687
11
-96.975
21
10.2687
0
LINE
8
BLACK
6
CONTINUOUS
10
-96.975
20
10.2687
11
-96.975
21
23.0687
0
LINE
8
BLACK
6
CONTINUOUS
10
-96.975
20
23.0687
11
-112.575
21
23.0687
0
LINE
8
BLACK
6
CONTINUOUS
10
-112.575
20
23.0687
11
-112.575
21
10.2687
0
LINE
8
BLACK
6
CONTINUOUS
10
-93.525
20
12.65
11
-77.925
21
12.65
0
LINE
8
BLACK
6
CONTINUOUS
10
-77.925
20
12.65
11
-77.925
21
25.45
0
LINE
8
BLACK
6
CONTINUOUS
10
-77.925
20
25.45
11
-93.525
21
25.45
0
LINE
8
BLACK
6
CONTINUOUS
10
-93.525
20
25.45
11
-93.525
21
12.65
0
LINE
8
BLACK
6
CONTINUOUS
10
-74.475
20
26.9375
11
-58.875
21
26.9375
0
LINE
8
BLACK
6
CONTINUOUS
10
-58.875
20
26.9375
11
-58.875
21
39.7375
0
LINE
8
BLACK
6
CONTINUOUS
10
-58.875
20
39.7375
11
-74.475
21
39.7375
0
LINE
8
BLACK
6
CONTINUOUS
10
-74.475
20
39.7375
11
-74.475
21
26.9375
0
LINE
8
BLACK
6
CONTINUOUS
10
-55.425
20
34.0812
11
-39.825
21
34.0812
0
LINE
8
BLACK
6
CONTINUOUS
10
-39.825
20
34.0812
11
-39.825
21
46.8813
0
LINE
8
BLACK
6
CONTINUOUS
10
-39.825
20
46.8813
11
-55.425
21
46.8813
0
LINE
8
BLACK
6
CONTINUOUS
10
-55.425
20
46.8813
11
-55.425
21
34.0812
0
LINE
8
BLACK
6
CONTINUOUS
10
-36.375
20
26.9375
11
-20.775
21
26.9375
0
LINE
8
BLACK
6
CONTINUOUS
10
-20.775
20
26.9375
11
-20.775
21
39.7375
0
LINE
8
BLACK
6
CONTINUOUS
10
-20.775
20
39.7375
11
-36.375
21
39.7375
0
LINE
8
BLACK
6
CONTINUOUS
10
-36.375
20
39.7375
11
-36.375
21
26.9375
0
LINE
8
BLACK
6
CONTINUOUS
10
-17.325
20
22.175
11
-1.725
21
22.175
0
LINE
8
BLACK
6
CONTINUOUS
10
-1.725
20
22.175
11
-1.725
21
34.975
0
LINE
8
BLACK
6
CONTINUOUS
10
-1.725
20
34.975
11
-17.325
21
34.975
0
LINE
8
BLACK
6
CONTINUOUS
10
-17.325
20
34.975
11
-17.325
21
22.175
0
LINE
8
BLACK
6
CONTINUOUS
10
-112.575
20
-8.78125
11
-96.975
21
-8.78125
0
LINE
8
BLACK
6
CONTINUOUS
10
-96.975
20
-8.78125
11
-96.975
21
4.01875
0
LINE
8
BLACK
6
CONTINUOUS
10
-96.975
20
4.01875
11
-112.575
21
4.01875
0
LINE
8
BLACK
6
CONTINUOUS
10
-112.575
20
4.01875
11
-112.575
21
-8.78125
0
LINE
8
BLACK
6
CONTINUOUS
10
-93.525
20
-6.4
11
-77.925
21
-6.4
0
LINE
8
BLACK
6
CONTINUOUS
10
-77.925
20
-6.4
11
-77.925
21
6.4
0
LINE
8
BLACK
6
CONTINUOUS
10
-77.925
20
6.4
11
-93.525
21
6.4
0
LINE
8
BLACK
6
CONTINUOUS
10
-93.525
20
6.4
11
-93.525
21
-6.4
0
LINE
8
BLACK
6
CONTINUOUS
10
-74.475
20
7.8875
11
-58.875
21
7.8875
0
LINE
8
BLACK
6
CONTINUOUS
10
-58.875
20
7.8875
11
-58.875
21
20.6875
0
LINE
8
BLACK
6
CONTINUOUS
10
-58.875
20
20.6875
11
-74.475
21
20.6875
0
LINE
8
BLACK
6
CONTINUOUS
10
-74.475
20
20.6875
11
-74.475
21
7.8875
0
LINE
8
BLACK
6
CONTINUOUS
10
-55.425
20
15.0312
11
-39.825
21
15.0312
0
LINE
8
BLACK
6
CONTINUOUS
10
-39.825
20
15.0312
11
-39.825
21
27.8312
0
LINE
8
BLACK
6
CONTINUOUS
10
-39.825
20
27.8312
11
-55.425
21
27.8312
0
LINE
8
BLACK
6
CONTINUOUS
10
-55.425
20
27.8312
11
-55.425
21
15.0312
0
LINE
8
BLACK
6
CONTINUOUS
10
-36.375
20
7.8875
11
-20.775
21
7.8875
0
LINE
8
BLACK
6
CONTINUOUS
10
-20.775
20
7.8875
11
-20.775
21
20.6875
0
LINE
8
BLACK
6
CONTINUOUS
10
-20.775
20
20.6875
11
-36.375
21
20.6875
0
LINE
8
BLACK
6
CONTINUOUS
10
-36.375
20
20.6875
11
-36.375
21
7.8875
0
LINE
8
BLACK
6
CONTINUOUS
10
-17.325
20
3.125
11
-1.725
21
3.125
0
LINE
8
BLACK
6
CONTINUOUS
10
-1.725
20
3.125
11
-1.725
21
15.925
0
LINE
8
BLACK
6
CONTINUOUS
10
-1.725
20
15.925
11
-17.325
21
15.925
0
LINE
8
BLACK
6
CONTINUOUS
10
-17.325
20
15.925
11
-17.325
21
3.125
0
LINE
8
BLACK
6
CONTINUOUS
10
-112.575
20
-27.8313
11
-96.975
21
-27.8313
0
LINE
8
BLACK
6
CONTINUOUS
10
-96.975
20
-27.8313
11
-96.975
21
-15.0313
0
LINE
8
BLACK
6
CONTINUOUS
10
-96.975
20
-15.0313
11
-112.575
21
-15.0313
0
LINE
8
BLACK
6
CONTINUOUS
10
-112.575
20
-15.0313
11
-112.575
21
-27.8313
0
LINE
8
BLACK
6
CONTINUOUS
10
25.8715
20
-31.2919
11
13.0928
21
-22.3441
0
LINE
8
BLACK
6
CONTINUOUS
10
13.0928
20
-22.3441
11
20.4345
21
-11.859
0
LINE
8
BLACK
6
CONTINUOUS
10
20.4345
20
-11.859
11
33.2133
21
-20.8068
0
LINE
8
BLACK
6
CONTINUOUS
10
33.2133
20
-20.8068
11
25.8715
21
-31.2919
  0
ENDSEC
  0
EOF
